<?xml version="1.0" standalone="no"?>
<!DOCTYPE svg PUBLIC "-//W3C//DTD SVG 20010904//EN"
 "http://www.w3.org/TR/2001/REC-SVG-20010904/DTD/svg10.dtd">
<svg version="1.0" xmlns="http://www.w3.org/2000/svg"
 width="500.000000pt" height="500.000000pt" viewBox="0 0 500.000000 500.000000"
 preserveAspectRatio="xMidYMid meet">

<g transform="translate(0.000000,500.000000) scale(0.100000,-0.100000)"
fill="#000000" stroke="none">
<path d="M3165 3637 c-118 -30 -232 -125 -283 -234 -24 -51 -27 -70 -27 -158
0 -63 5 -112 14 -133 l14 -33 258 2 c143 0 259 2 259 4 0 2 -44 27 -98 55
-165 86 -222 149 -222 245 0 56 17 92 64 133 102 89 300 62 425 -58 63 -60 95
-112 125 -202 20 -58 29 -74 47 -76 l22 -4 -6 168 c-4 92 -7 198 -7 236 0 59
-2 69 -17 66 -9 -2 -22 -19 -28 -38 -6 -19 -23 -41 -36 -49 -22 -12 -31 -11
-89 13 -145 61 -174 69 -270 72 -56 2 -115 -2 -145 -9z"/>
<path d="M1110 3601 c0 -18 6 -21 43 -21 58 -1 124 -32 138 -67 7 -16 14 -115
17 -230 l4 -202 162 2 161 2 3 229 2 229 79 -7 c107 -9 166 -31 216 -80 71
-71 92 -217 47 -320 -12 -27 -22 -50 -22 -51 0 -2 73 -4 163 -4 185 -2 179 -4
218 84 17 39 20 61 17 114 -12 158 -130 283 -303 322 -31 7 -222 13 -497 16
l-448 5 0 -21z"/>
<path d="M1260 2896 l0 -86 40 0 c31 0 43 5 55 24 14 21 14 29 4 48 -7 13 -12
35 -10 50 3 30 -1 34 -52 43 l-37 7 0 -86z m70 49 c17 -21 1 -38 -31 -33 -22
3 -31 21 -22 41 7 13 40 8 53 -8z m10 -70 c19 -23 4 -45 -30 -45 -16 0 -31 5
-31 10 -1 6 -2 16 -3 23 -1 6 -1 15 1 20 7 13 50 8 63 -8z"/>
<path d="M1467 2974 c-4 -4 -6 -44 -6 -88 1 -45 4 -67 6 -51 7 47 19 50 48 11
33 -44 55 -48 24 -5 l-21 30 21 15 c24 17 28 56 8 73 -18 14 -70 25 -80 15z
m68 -49 c0 -27 -4 -30 -32 -33 -32 -3 -33 -2 -33 33 0 35 1 36 33 33 28 -3 32
-6 32 -33z"/>
<path d="M1680 2952 c-38 -39 -40 -83 -5 -117 36 -37 86 -34 119 6 14 17 26
41 26 54 0 33 -39 74 -77 81 -27 5 -37 1 -63 -24z m98 -12 c42 -40 17 -110
-40 -110 -42 0 -68 25 -68 66 0 58 65 84 108 44z"/>
<path d="M1905 2970 c-3 -5 3 -10 14 -10 19 0 21 -6 21 -75 0 -43 4 -75 10
-75 6 0 10 32 10 75 0 68 2 75 20 75 11 0 20 5 20 10 0 6 -20 10 -44 10 -25 0
-48 -4 -51 -10z"/>
<path d="M2187 2973 c-4 -3 -7 -21 -7 -40 0 -31 -2 -33 -35 -33 -33 0 -35 2
-35 35 0 19 -4 35 -10 35 -6 0 -10 -33 -10 -80 0 -47 4 -80 10 -80 6 0 10 16
10 35 0 33 2 35 35 35 33 0 35 -2 35 -35 0 -19 5 -35 10 -35 6 0 10 35 10 85
0 85 -1 91 -13 78z"/>
<path d="M2307 2973 c-4 -3 -7 -42 -7 -85 l0 -78 50 0 c28 0 50 5 50 10 0 6
-18 10 -40 10 -36 0 -40 3 -40 25 0 21 5 25 28 25 15 0 34 5 42 10 11 7 4 10
-27 10 -41 0 -43 1 -43 30 0 28 2 30 40 30 22 0 40 5 40 10 0 11 -83 14 -93 3z"/>
<path d="M2511 2891 c1 -47 4 -72 6 -56 7 47 19 50 48 11 33 -44 55 -48 24 -5
l-21 30 21 15 c24 17 28 56 7 74 -8 6 -31 13 -50 14 l-36 3 1 -86z m74 34 c0
-27 -4 -30 -32 -33 -32 -3 -33 -2 -33 33 0 35 1 36 33 33 28 -3 32 -6 32 -33z"/>
<path d="M2988 2969 c-10 -5 -18 -21 -18 -35 0 -21 9 -29 50 -46 55 -23 63
-42 25 -60 -19 -9 -29 -7 -50 6 -31 21 -43 16 -20 -8 9 -9 32 -16 50 -16 63 0
81 68 23 85 -41 12 -68 34 -62 50 7 18 55 20 72 3 7 -7 12 -8 12 -2 0 30 -48
43 -82 23z"/>
<path d="M3180 2897 c0 -48 4 -87 9 -87 4 0 8 10 8 23 1 44 3 47 38 47 33 0
35 -2 35 -35 0 -19 5 -35 10 -35 6 0 10 33 10 80 0 47 -4 80 -10 80 -5 0 -10
-16 -10 -35 0 -33 -2 -35 -35 -35 -21 0 -36 5 -36 13 -1 6 -2 22 -3 34 0 12
-4 25 -8 29 -5 4 -8 -32 -8 -79z"/>
<path d="M3424 2961 c-52 -32 -53 -99 -2 -135 70 -49 154 26 122 109 -7 17
-54 45 -76 45 -7 0 -27 -9 -44 -19z m99 -32 c33 -45 1 -99 -58 -99 -60 0 -87
69 -43 110 30 28 75 23 101 -11z"/>
<path d="M3657 2973 c-11 -11 -8 -163 3 -163 6 0 10 16 10 35 0 32 2 35 29 35
57 0 76 71 24 91 -29 11 -57 12 -66 2z m74 -29 c18 -21 0 -48 -35 -52 -24 -3
-26 0 -26 32 0 31 3 36 24 36 13 0 29 -7 37 -16z"/>
<path d="M1308 2502 c-3 -108 -10 -197 -16 -208 -18 -35 -61 -56 -123 -61 -50
-5 -59 -9 -59 -25 0 -19 10 -19 448 -16 421 4 452 5 525 26 143 39 260 119
305 209 25 48 43 143 36 186 -14 86 8 77 -200 77 l-186 0 7 -31 c4 -18 7 -59
7 -93 -1 -174 -125 -296 -300 -296 -46 0 -58 4 -83 29 l-29 29 0 181 0 181
-164 0 -163 0 -5 -188z"/>
<path d="M2850 2425 c0 -297 -1 -294 68 -225 48 49 82 52 174 15 128 -49 174
-58 292 -53 131 6 195 27 285 93 119 88 174 193 175 337 1 47 -2 89 -5 92 -3
4 -100 5 -215 4 -208 -3 -209 -3 -176 -21 117 -64 179 -177 151 -275 -41 -147
-239 -205 -413 -123 -130 63 -224 176 -273 333 -21 67 -32 88 -45 88 -17 0
-18 -19 -18 -265z"/>
</g>
</svg>
